<svg version="1.1" xmlns="http://www.w3.org/2000/svg" viewBox="0 0 1284 594" width="1284" height="594">
  <!-- svg-source:excalidraw -->
  
  <defs>
    <style>
      @font-face {
        font-family: "Virgil";
        src: url("https://excalidraw.com/Virgil.woff2");
      }
      @font-face {
        font-family: "Cascadia";
        src: url("https://excalidraw.com/Cascadia.woff2");
      }
    </style>
  </defs>
  <g stroke-linecap="round" transform="translate(358 127) rotate(0 55.5 55)"><path d="M1.72 0.96 L111.56 -0.32 L111.82 110.5 L0.08 108.55" stroke="none" stroke-width="0" fill="#7299e8"></path><path d="M1.36 -0.47 C32.02 0.28, 60.22 0.52, 109.95 1.06 M-0.13 0.34 C36.85 -0.69, 73.09 0.02, 111.3 0.83 M109.09 -0.16 C113.25 36.43, 111.65 70.71, 112.37 108.24 M111.08 -0.05 C110.22 21.72, 111.39 45.41, 111.97 109.13 M111.23 111.68 C67.53 111.63, 26.64 109.7, 0.05 111.99 M111.71 109 C86.21 110.22, 60.02 111.16, 0.59 110.96 M1.58 110.25 C-1.09 85.1, -0.9 59.57, -1.02 0.36 M-0.12 109.23 C0.54 74.07, -0.07 39.72, -0.91 -0.54" stroke="#7299e8" stroke-width="1" fill="none"></path></g><g stroke-linecap="round" transform="translate(243 246) rotate(0 55.5 55)"><path d="M0.33 -0.86 L109.02 -1.2 L111.36 111.12 L0.37 108.04" stroke="none" stroke-width="0" fill="#7299e8"></path><path d="M1.45 -0.56 C27.4 -0.65, 57.31 0.01, 111.84 -1 M-0.32 0.08 C24.94 0.83, 51.58 -0.17, 110.98 -0.99 M112.85 -1.4 C111.73 42.61, 110.79 81.04, 112.91 110.57 M110.15 -0.8 C110.88 36.61, 110.15 73.65, 110.23 110.4 M111.7 111.61 C85.69 109.31, 63.5 108.17, -0.07 108.47 M110.82 109.89 C66.94 109.51, 24.2 109.28, 0.14 110.23 M-0.9 109.73 C-0.24 85.5, -1.16 61.31, 0.62 1.4 M-0.7 110.98 C0.08 81.82, -0.09 53.8, -0.57 -0.08" stroke="#7299e8" stroke-width="1" fill="none"></path></g><g stroke-linecap="round" transform="translate(699 12) rotate(0 55.5 55)"><path d="M-0.67 -0.89 L111.31 0.7 L112.96 111 L1.35 111" stroke="none" stroke-width="0" fill="#7299e8"></path><path d="M0.36 0.3 C24.93 0.56, 47.67 1.11, 112.33 0.25 M-0.06 -0.31 C29.75 -0.12, 58.22 1.04, 111.01 -0.44 M110.1 -1.76 C110.49 20.62, 112.46 46.71, 109.08 109.94 M111.12 -0.34 C110.99 43.02, 111.98 84.8, 111.49 109.01 M110.56 110.67 C80.76 109.73, 49.31 110.79, 0.52 109.23 M110.96 110.74 C88.95 109.91, 66.18 110.96, 0.98 110.75 M1.72 108.17 C1.57 76.23, 2.38 39.91, 1.03 -1.22 M-0.85 110.19 C0.77 78.82, 0.83 49.47, 0.32 0.91" stroke="#7299e8" stroke-width="1" fill="none"></path></g><g stroke-linecap="round" transform="translate(11 464) rotate(0 55.5 55)"><path d="M-0.86 -1.98 L109.8 0.36 L112.12 110.37 L-1.96 108.62" stroke="none" stroke-width="0" fill="#7299e8"></path><path d="M-0.56 -1.68 C21.88 -1.64, 44.91 0.04, 110 -1.43 M0.08 -0.44 C25.91 1.18, 50.11 0.34, 110.01 0.7 M109.6 0.22 C112.19 37.4, 109.96 78.16, 111.57 110.65 M110.2 0.02 C111.9 30.9, 112.34 62.46, 111.4 109.12 M112.61 108.17 C84.71 109.85, 57.63 110.32, -1.53 111.88 M110.89 109.68 C87.07 110.49, 63.68 109.94, 0.23 109.17 M-0.27 110 C-0.9 73.67, -1.17 39.8, 1.4 -0.87 M0.98 110.45 C0.4 73.53, 0.57 35.92, -0.08 0.17" stroke="#7299e8" stroke-width="1" fill="none"></path></g><g stroke-linecap="round" transform="translate(586 365) rotate(0 55.5 55)"><path d="M-1.29 0.23 L110.28 1.94 L109.63 109.04 L-1.26 110.37" stroke="none" stroke-width="0" fill="#7299e8"></path><path d="M-1.42 0.7 C33.41 2.76, 63.66 0.41, 110.25 -0.52 M0.23 0.3 C37.7 -1.33, 75.6 -1.1, 110.68 -0.86 M110.41 -1.45 C110.54 42.16, 111.83 84.45, 109.22 109.33 M110.28 0.78 C111.31 25.16, 112.12 48.91, 111.4 110.12 M109.38 111.74 C75.21 110.39, 39.17 110.51, 1.2 109.64 M110.34 109.52 C78.29 111.09, 45.98 109.34, -0.73 110.57 M-0.76 108.76 C1.18 84.64, 2.03 60.28, -0.07 0.38 M0.59 110.24 C0.44 71.03, 0.17 32.74, -0.7 0.84" stroke="#7299e8" stroke-width="1" fill="none"></path></g><g stroke-linecap="round" transform="translate(1050 359) rotate(0 55.5 55)"><path d="M0.23 -0.72 L112.94 -1.37 L110.04 108.74 L0.37 111.14" stroke="none" stroke-width="0" fill="#7299e8"></path><path d="M0.7 1.32 C24.47 0.28, 44.71 0.04, 110.48 0.81 M0.3 -0.08 C31.32 -0.21, 63.39 -0.58, 110.14 0.83 M109.55 0.51 C111.46 25.03, 111.57 44.67, 110.33 108.39 M111.78 -0.62 C112.95 42.45, 112.54 84.91, 111.12 110.26 M112.74 110.45 C85.61 109.74, 60.65 110.3, -0.36 109.79 M110.52 109.42 C69.86 108.5, 26.16 108.54, 0.57 109.29 M-1.24 110.68 C-0.46 83.48, 0.39 53.83, 0.38 1.1 M0.24 109.41 C0.96 86.47, 1.72 63.97, 0.84 -0.64" stroke="#7299e8" stroke-width="1" fill="none"></path></g><g stroke-linecap="round" transform="translate(822 363) rotate(0 55.5 55)"><path d="M-1.2 0.36 L112.12 0.37 L109.04 108.62 L1.17 110.35" stroke="none" stroke-width="0" fill="#87e749"></path><path d="M-0.49 -0.84 C41.52 1.77, 81.7 -0.5, 109.54 -0.2 M0.72 0.82 C29.45 0.47, 58.48 1.18, 111.47 -0.71 M112.97 -0.73 C109.97 45.07, 110.8 86.98, 110.75 111.62 M111.01 -0.71 C110.57 22.91, 110.52 46.46, 110.34 109.7 M110.64 109.46 C72.33 108.91, 35.13 110.87, -1.83 110.5 M110.23 110.69 C78.7 109.78, 48.62 108.82, 0.22 110.29 M-0.58 109.08 C-0.71 82.59, 1.55 53.06, 0.68 -0.71 M0.01 110.29 C-0.9 84.12, -1.16 59.56, -0.43 -0.99" stroke="#87e749" stroke-width="1" fill="none"></path></g><g stroke-linecap="round" transform="translate(473 474) rotate(0 55.5 55)"><path d="M-0.72 1.94 L109.63 -0.96 L109.74 110.37 L1.14 108.53" stroke="none" stroke-width="0" fill="#87e749"></path><path d="M1.32 1.88 C24.04 -0.86, 48.36 -0.91, 111.81 -0.26 M-0.08 -0.53 C41.36 -0.63, 82.31 -1.2, 111.83 -0.89 M111.51 -0.02 C112.48 37.87, 108.9 74.9, 109.39 111.68 M110.38 0.99 C110.41 43.21, 110.61 85.39, 111.26 109.26 M111.45 109.69 C71.33 110.77, 31.58 110.6, -0.21 111.56 M110.42 110.8 C74.04 108.52, 37.9 110.04, -0.71 109.55 M0.68 109.84 C1.95 74.66, 0.35 38.32, 1.1 -1.88 M-0.59 110.09 C-1.52 86.55, -1.35 62.24, -0.64 0.12" stroke="#87e749" stroke-width="1" fill="none"></path></g><g stroke-linecap="round" transform="translate(932 10) rotate(0 55.5 55)"><path d="M1.37 -0.46 L112.42 1.02 L110.13 111.69 L-0.78 111.43" stroke="none" stroke-width="0" fill="#87e749"></path><path d="M1.87 0.38 C25.76 -0.31, 50.21 2.4, 112.37 0.06 M-0.52 0.8 C27.84 -0.45, 55.25 0.25, 110.21 -0.2 M112.43 0.78 C110.47 28.76, 109.11 57.52, 110.29 108.18 M111.27 -0.87 C110.2 32.79, 109.8 64.78, 111.6 109.05 M112.49 110.91 C85.8 110.54, 58.23 109.88, -1.75 111.22 M111.9 109.34 C67.63 110.43, 26.02 110.19, -0.23 110.2 M1.6 110.2 C-0.33 77.68, 0.19 45.7, 1.3 0.6 M0.79 110.52 C-0.82 66.76, -1.98 21.3, -0.79 0.76" stroke="#87e749" stroke-width="1" fill="none"></path></g><g stroke-linecap="round" transform="translate(470 16) rotate(0 55.5 55)"><path d="M-0.32 0.82 L111.5 0.08 L109.55 110.47 L-1.31 109.69" stroke="none" stroke-width="0" fill="#87e749"></path><path d="M0.89 -0.05 C41.98 -2.09, 82.76 -0.39, 110.37 1.12 M-0.07 -0.76 C32.46 0.39, 64.47 0.26, 111.86 -0.92 M112.56 -0.3 C111.88 23.87, 109.16 43.1, 110.16 109.28 M110.22 0.85 C111.34 34.84, 110.08 68.6, 110.73 110.39 M112.2 111.82 C75.69 109.84, 43.85 108.35, -1.21 110.52 M110.93 109.61 C70.7 111.15, 29.62 109.87, -0.31 109.47 M0.45 108.75 C0.14 67.29, 0.23 26.99, 0.31 -1.65 M-0.8 110.1 C0.83 77.41, 0.31 47.5, 0.48 0.28" stroke="#87e749" stroke-width="1" fill="none"></path></g><g stroke-linecap="round" transform="translate(1158 13) rotate(0 55.5 55)"><path d="M0.36 1.12 L111.37 -1.96 L109.62 111.17 L0.35 111.67" stroke="none" stroke-width="0" fill="#87e749"></path><path d="M-0.84 0.17 C31.05 -0.73, 58.99 -1.19, 110.8 -0.64 M0.82 -0.28 C34.18 -1.79, 69.09 -0.33, 110.29 0.92 M110.27 -0.26 C113.03 25.86, 111.78 50.34, 112.62 108.3 M110.29 0.45 C110.25 24.55, 110.13 47.63, 110.7 110.35 M110.46 108.5 C68.71 108.27, 28.44 107.97, 0.5 109.64 M111.69 109 C79.07 109.37, 46.03 109.37, 0.29 109.55 M-0.92 109.15 C0.63 79.87, -0.87 47.63, -0.71 -1.4 M0.29 110.18 C-1.07 66.13, -0.33 22, -0.99 -0.6" stroke="#87e749" stroke-width="1" fill="none"></path></g><g stroke-linecap="round" transform="translate(1162 245) rotate(0 55.5 55)"><path d="M1.94 -1.37 L110.04 -1.26 L111.37 111.14 L-1.47 110.87" stroke="none" stroke-width="0" fill="#87e749"></path><path d="M1.88 -0.51 C24.95 -1.48, 50.32 0.08, 110.74 1.44 M-0.53 0.04 C35.52 -0.23, 70.77 0.93, 110.11 0.44 M110.98 1.81 C110.29 27.97, 109.53 57.9, 112.68 111.75 M111.99 0.19 C112.43 25.5, 111.98 50.48, 110.26 110.63 M110.69 110.64 C86.53 111.45, 62.08 110.04, 1.56 110.52 M111.8 109.23 C84.04 108.62, 59.55 108.65, -0.45 110.28 M-0.16 111.53 C1.37 81.12, 1.06 53.48, -1.88 -1.58 M0.09 109.13 C0.58 69.83, 0.58 30.42, 0.12 -0.36" stroke="#87e749" stroke-width="1" fill="none"></path></g><g stroke-linecap="round" transform="translate(361 362) rotate(0 55.5 55)"><path d="M1.82 -2 L112.8 0.25 L111.33 109.67 L1.2 110.18" stroke="none" stroke-width="0" fill="#ff7851"></path><path d="M0.15 0.81 C45.34 -1.04, 86.05 0.39, 109.62 0.49 M0.32 0.8 C28.62 -1.77, 58.24 -1.68, 111.7 -0.78 M111.05 -1.87 C110.17 29.96, 110.03 59.36, 109.5 110.62 M110.62 -0.34 C109.46 29.77, 110.6 60.64, 111.23 110.13 M111.54 108.46 C71.18 107.88, 32.66 107.71, 0.46 109 M111.24 110.9 C71 109.09, 29.86 109.95, -0.34 109.26 M-1.69 111.18 C-0.68 69.56, 0.58 29.19, -0.69 -1.04 M0.63 110.64 C0.16 81.25, 0.21 51.87, -0.19 0.1" stroke="#ff7851" stroke-width="1" fill="none"></path></g><g stroke-linecap="round" transform="translate(130 128) rotate(0 55.5 55)"><path d="M0.82 0.5 L111.08 -1.45 L111.47 108.69 L-0.31 111.38" stroke="none" stroke-width="0" fill="#ff7851"></path><path d="M-0.05 1.14 C29.65 0.57, 62.04 -1.12, 112.12 -0.27 M-0.76 0.64 C37.39 0.91, 74.36 0.94, 110.08 -0.95 M110.7 0.97 C113.09 30.37, 109.81 63.42, 110.28 110.16 M111.85 0.4 C111.62 31.59, 111.53 64.65, 111.39 110.11 M112.82 109.26 C68.44 112.65, 24.33 109.46, 0.52 111.42 M110.61 110.87 C89.38 110.89, 65.89 109.61, -0.53 110.79 M-1.25 110.28 C-0.22 76, 1.18 41.58, -1.65 -0.24 M0.1 109.98 C-1.7 84.96, 0.08 61.48, 0.28 -0.16" stroke="#ff7851" stroke-width="1" fill="none"></path></g><g stroke-linecap="round" transform="translate(702 467) rotate(0 55.5 55)"><path d="M1.12 0.37 L109.04 -1.38 L112.17 110.35 L1.67 108.52" stroke="none" stroke-width="0" fill="#ff7851"></path><path d="M0.17 0.84 C23 -0.96, 46.54 0.26, 110.36 0.16 M-0.28 -0.02 C27.42 -0.22, 57.3 -1.62, 111.92 -0.7 M110.74 1.91 C112.65 34.88, 111.83 70.06, 109.3 108.39 M111.45 -0.77 C111.41 32.29, 110.35 66.06, 111.35 110.8 M109.5 109.93 C86.32 111.58, 62.87 110.2, -0.36 109.78 M110 110.14 C81.46 109.93, 51.68 111.05, -0.45 109.87 M-0.85 110.62 C1.72 76.14, 1 43.33, -1.4 1.96 M0.18 109.43 C-0.09 72.17, -0.44 33.02, -0.6 0.18" stroke="#ff7851" stroke-width="1" fill="none"></path></g><g stroke-linecap="round" transform="translate(817 130) rotate(0 55.5 55)"><path d="M0.5 0.08 L109.55 0.47 L109.69 109.69 L1.38 110.1" stroke="none" stroke-width="0" fill="#ff7851"></path><path d="M1.14 -1.05 C44.79 0.68, 86.83 1.15, 110.73 0.68 M0.64 0.3 C33.23 1.02, 65.66 -0.07, 110.05 -0.08 M111.97 1.37 C110.1 38.27, 111.02 79.63, 111.16 109.9 M111.4 0.97 C109.27 30.38, 109.87 59.38, 111.11 110.84 M110.26 110.05 C81.77 109.57, 47.36 111.53, 1.42 108 M111.87 110.59 C72.99 108.87, 32.74 109.04, 0.79 110.12 M0.28 108.98 C0.12 85.3, 0.06 58.18, -0.24 -1.55 M-0.02 109.09 C0.33 70, 1.36 28.56, -0.16 0.41" stroke="#ff7851" stroke-width="1" fill="none"></path></g><g stroke-linecap="round" transform="translate(699 249) rotate(0 55.5 55)"><path d="M0.37 -1.96 L109.62 1.17 L111.35 111.67 L-1.48 110.19" stroke="none" stroke-width="0" fill="#ff7851"></path><path d="M0.84 -1 C29.17 -1.56, 60.99 -0.74, 111.16 -0.88 M-0.02 -0.99 C41.93 0.78, 81.77 1.24, 110.3 0.11 M112.91 0.57 C111.25 43.56, 112.22 85.93, 109.39 110.03 M110.23 0.4 C109.33 32.43, 109.91 66.53, 111.8 109.09 M110.93 108.47 C81.58 107.34, 48.9 108.81, -0.22 109.36 M111.14 110.23 C85.38 109.11, 61.7 108.44, -0.13 110 M0.62 111.4 C-0.37 80.89, -0.2 49.02, 1.96 0.91 M-0.57 109.92 C-0.15 76.47, -1.31 43.21, 0.18 0.56" stroke="#ff7851" stroke-width="1" fill="none"></path></g><g stroke-linecap="round" transform="translate(242 471) rotate(0 55.5 55)"><path d="M1.55 -0.14 L111.97 1.03 L111.93 109.92 L-0.96 109.11" stroke="none" stroke-width="0" fill="#ee4b74"></path><path d="M0.85 1.32 C32.78 -1.13, 61.73 0.87, 112.21 0.31 M-0.56 -0.79 C24.99 1.08, 50.72 0.43, 110.92 0.38 M111.41 -1.45 C113.38 28.61, 110.07 61.98, 110.13 109.29 M110.07 0.24 C112.75 26.74, 112.93 52.96, 110.83 109.34 M111.92 108.06 C88.31 111.32, 66.14 111.84, -1.37 109.81 M111.06 110.07 C84.41 110.56, 58 110.83, -0.3 110.41 M1.22 111.15 C0.78 84.1, 2.01 55.96, 1.26 -0.1 M-0.6 110.69 C-0.45 83.94, -1.22 55.57, -0.04 -0.39" stroke="#ee4b74" stroke-width="1" fill="none"></path></g><g stroke-linecap="round" transform="translate(246 16) rotate(0 55.5 55)"><path d="M0.08 -1.45 L111.47 -1.31 L110.69 111.38 L0.1 108.67" stroke="none" stroke-width="0" fill="#ee4b74"></path><path d="M-1.05 1.06 C38.89 -1.26, 77.6 -0.9, 111.68 -0.16 M0.3 0.83 C32.68 0.15, 64.09 -1.67, 110.92 0.65 M112.37 -1.76 C108.93 40.74, 110.11 83.3, 110.9 109.36 M111.97 -0.87 C112.82 24.12, 112.33 48.89, 111.84 109.81 M111.05 111.99 C69.6 108.38, 31.61 111.01, -2 111.02 M111.59 110.96 C77.76 110.65, 45.38 111.75, 0.12 109.28 M-1.02 110.36 C1.07 74.82, -0.96 38.78, -1.55 1.43 M-0.91 109.46 C0.75 86.26, 0.17 61.41, 0.41 0.25" stroke="#ee4b74" stroke-width="1" fill="none"></path></g><g stroke-linecap="round" transform="translate(10 248) rotate(0 55.5 55)"><path d="M-1.96 -1.38 L112.17 0.35 L112.67 108.52 L0.19 108.86" stroke="none" stroke-width="0" fill="#ee4b74"></path><path d="M-1 -1.43 C27.18 -0.67, 56.65 -0.31, 110.12 1.43 M-0.99 0.7 C42.89 -0.69, 85.77 -0.68, 111.11 0.98 M111.57 0.65 C110.6 30.62, 109.16 56.39, 111.03 110.02 M111.4 -0.88 C110.84 24.85, 111.85 51.1, 110.09 109.82 M109.47 111.88 C78.87 110.46, 50.03 109.74, -0.64 108.47 M111.23 109.17 C70.31 110.44, 28.74 110.02, 0 109.71 M1.4 109.13 C1.15 81.33, -0.93 56.03, 0.91 0.02 M-0.08 110.17 C-0.63 72.85, -0.8 37.87, 0.56 0.18" stroke="#ee4b74" stroke-width="1" fill="none"></path></g><g stroke-linecap="round" transform="translate(583 126) rotate(0 55.5 55)"><path d="M1.82 0.51 L109.13 -1.22 L111.53 110.89 L1.34 111.57" stroke="none" stroke-width="0" fill="#ee4b74"></path><path d="M-1.28 0.21 C35.53 0.94, 67.21 0.88, 112.51 -0.19 M0.04 -0.39 C34.8 -1.34, 70.32 -0.49, 110.1 0.24 M111.04 -1.3 C113.11 36.13, 111.44 69.03, 109.7 110.03 M111.99 0.87 C112.37 25.18, 112.41 49, 111.98 110.94 M111.2 111.19 C69.97 108.57, 33.6 108.86, -0.97 109.41 M111.79 110.55 C75.8 110.08, 43.41 109.14, -0.41 110.5 M1.8 109.16 C-0.26 81.99, 0.39 55.35, -0.09 -0.35 M-0.47 109.39 C-1.16 75.47, -1.7 42.22, -0.45 -0.64" stroke="#ee4b74" stroke-width="1" fill="none"></path></g><g stroke-linecap="round" transform="translate(474 249) rotate(0 55.5 55)"><path d="M-1.38 1.17 L111.35 1.67 L109.52 110.19 L-1.14 108.85" stroke="none" stroke-width="0" fill="#ee4b74"></path><path d="M-1.43 -1.46 C34.06 -0.09, 68.69 -0.33, 112.43 1.64 M0.7 0.47 C29.46 2.03, 59.63 1.21, 111.98 -0.36 M111.65 -0.25 C113.66 29.87, 110.44 63.16, 111.02 108.57 M110.12 -0.66 C109.86 38.35, 110.96 75.09, 110.82 109.73 M112.88 108.17 C86.53 108.79, 60.84 108.51, -1.53 111.37 M110.17 110.22 C89.07 109.8, 66.43 110.25, -0.29 109.54 M-0.87 110.68 C-1.05 80.3, 1.62 54.31, 0.02 0.57 M0.17 109.57 C-0.36 74.41, 0.81 40.57, 0.18 -0.98" stroke="#ee4b74" stroke-width="1" fill="none"></path></g><g stroke-linecap="round" transform="translate(935 467) rotate(0 55.5 55)"><path d="M0.37 1.14 L109.53 0.87 L109.88 108.41 L-1.39 111.61" stroke="none" stroke-width="0" fill="#ee4b74"></path><path d="M-0.52 0.81 C30.19 1.86, 61.36 1.02, 110.83 -1.05 M-0.86 0.83 C32.87 0.79, 67.22 -0.37, 111.26 -0.01 M110.33 -1.61 C112.73 44.7, 109.61 87.45, 109.77 111.98 M111.12 0.26 C110.89 35.77, 110.82 71.15, 111.22 109.85 M110.64 109.79 C75.72 111.19, 36.01 109.71, -1.16 111.61 M111.57 109.29 C85.84 109.46, 61.21 108.56, 0.34 109.92 M0.38 111.1 C-2.26 66.98, 0.8 27.6, -1.18 0.17 M0.84 109.36 C-0.82 86.19, 0.04 62.42, -0.48 -0.63" stroke="#ee4b74" stroke-width="1" fill="none"></path></g><g stroke-linecap="round" transform="translate(1048 128) rotate(0 55.5 55)"><path d="M0.47 -1.31 L110.69 1.38 L111.1 108.67 L-0.2 110.08" stroke="none" stroke-width="0" fill="#ee4b74"></path><path d="M0.65 -0.63 C40.73 -0.86, 79.9 -0.75, 110.86 -1.52 M0.17 0.86 C39.5 -1.88, 80.75 -0.27, 111.78 -0.15 M109.09 -0.84 C111.03 38.47, 111.65 75.98, 109.43 111.71 M111.88 -0.27 C112.46 37.47, 112.91 74.52, 111.6 110.91 M109.56 108.79 C82.33 112.52, 50.62 112.13, -0.14 109.22 M110.31 109.69 C67.55 111.86, 25.29 110.35, 0.23 109.38 M0.39 110.31 C-1.09 75.22, -0.99 42.36, -1.6 0.2 M0.86 110.48 C1.29 77.04, 1.42 44.64, 0.04 -0.72" stroke="#ee4b74" stroke-width="1" fill="none"></path></g><g stroke-linecap="round" transform="translate(935 245) rotate(0 55.5 55)"><path d="M1.14 -1.47 L111.87 -1.12 L109.41 108.61 L1.61 109.84" stroke="none" stroke-width="0" fill="#ee4b74"></path><path d="M0.81 -0.26 C32.14 0.74, 61.99 0.12, 109.95 0.08 M0.83 -0.89 C30.45 0.66, 59.31 1.22, 110.99 0.9 M109.39 1.68 C111.77 32.04, 111.58 65.72, 112.98 110.39 M111.26 -0.74 C112.07 38.54, 112.31 78.93, 110.85 110.32 M110.79 111.56 C79.29 108.49, 45.58 108.64, 1.61 108.45 M110.29 109.55 C88.54 110.25, 64.9 110.97, -0.08 110.77 M1.1 108.12 C-1.54 74.37, 0.52 35.22, 0.17 -1.74 M-0.64 110.12 C0.41 68.63, 0.09 24.83, -0.63 0.19" stroke="#ee4b74" stroke-width="1" fill="none"></path></g><g stroke-linecap="round" transform="translate(11 13) rotate(0 55.5 55)"><path d="M-1.18 1.57 L109.81 -1.86 L109.4 110.27 L1.01 108.79" stroke="none" stroke-width="0" fill="#87e749"></path><path d="M1.13 0.57 C33 -0.02, 68.85 1.46, 111.23 1.27 M-0.2 0.03 C27.9 -0.88, 54.78 -0.63, 111.62 -0.93 M109.29 -0.33 C111.02 27.83, 110.84 56.13, 110.52 111.46 M110.81 0.13 C109.76 35.56, 110.29 70.74, 111 110.78 M112.26 110.53 C70.18 107.78, 27.57 111.4, -1.01 108.57 M111.64 109.17 C84.37 111.01, 58.01 111.47, -0.69 109.84 M0.84 110.74 C-0.78 75.69, 0.87 36.66, 0.71 -1 M-0.11 109.46 C0.19 75.58, 0.18 42.65, 0.95 0.5" stroke="#87e749" stroke-width="1" fill="none"></path></g><g stroke-linecap="round" transform="translate(124 362) rotate(0 55.5 55)"><path d="M-1.31 -0.31 L112.38 0.1 L109.67 109.8 L0.08 111.63" stroke="none" stroke-width="0" fill="#87e749"></path><path d="M-0.63 1.12 C27.23 0.32, 54.83 -0.51, 109.48 1.28 M0.86 -0.92 C35.62 -0.27, 73.81 0.59, 110.85 0.48 M110.16 -0.72 C110.19 40.43, 109.4 79.49, 112.71 110.79 M110.73 0.39 C110.16 44.56, 109.86 88.04, 111.91 109.63 M109.79 110.52 C78.84 107.2, 44.87 109.06, -0.78 111.73 M110.69 109.47 C71.98 109.35, 30.66 109.46, -0.62 110.14 M0.31 108.35 C-0.44 81.04, 1.23 53.57, 0.2 -0.04 M0.48 110.28 C0.44 87.45, 0.85 64.12, -0.72 0.23" stroke="#87e749" stroke-width="1" fill="none"></path></g><g stroke-linecap="round" transform="translate(1163 470) rotate(0 55.5 55)"><path d="M-1.47 0.87 L109.88 -1.59 L109.61 111.61 L-0.16 111.64" stroke="none" stroke-width="0" fill="#87e749"></path><path d="M-0.26 1.44 C29.6 0.16, 58.12 -1.5, 111.08 -0.59 M-0.89 0.44 C29.41 -1.65, 59.68 -0.93, 111.9 0.04 M112.68 1.75 C109.2 24.77, 109.4 48.41, 111.39 111.15 M110.26 0.63 C110.32 38.24, 111.36 74.59, 111.32 109.9 M112.56 110.52 C69.72 108.93, 29.91 111.49, -1.55 108.1 M110.55 110.28 C85.47 108.59, 61.04 109.13, 0.77 110.35 M-1.88 108.42 C0.97 77.85, -1.39 44.91, -1.74 1.7 M0.12 109.64 C0.04 84.05, -1.41 58.83, 0.19 0.57" stroke="#87e749" stroke-width="1" fill="none"></path></g></svg>